HIERARCHY
ROOT Hips
{
	OFFSET 0.000000 0.000000 0.000000 
	CHANNELS 6 Xposition Yposition Zposition Zrotation Yrotation Xrotation
	JOINT LeftUpLeg
	{
		OFFSET 1.363060 -1.794630 0.839290 
		CHANNELS 3 Zrotation Yrotation Xrotation
		JOINT LeftLeg
		{
			OFFSET 2.448110 -6.726130 0.000000 
			CHANNELS 3 Zrotation Yrotation Xrotation
			JOINT LeftFoot
			{
				OFFSET 2.562200 -7.039590 0.000000 
				CHANNELS 3 Zrotation Yrotation Xrotation
				JOINT LeftToeBase
				{
					OFFSET 0.157640 -0.433110 2.322550 
					CHANNELS 3 Zrotation Yrotation Xrotation
					End Site
					{
						OFFSET 0.000000 0.000000 0.000000 
					}
				}
			}
		}
	}
	JOINT RightUpLeg
	{
		OFFSET -1.305520 -1.794630 0.839290 
		CHANNELS 3 Zrotation Yrotation Xrotation
		JOINT RightLeg
		{
			OFFSET -2.542530 -6.985550 0.000000 
			CHANNELS 3 Zrotation Yrotation Xrotation
			JOINT RightFoot
			{
				OFFSET -2.568260 -7.056230 0.000000 
				CHANNELS 3 Zrotation Yrotation Xrotation
				JOINT RightToeBase
				{
					OFFSET -0.164730 -0.452590 2.363150 
					CHANNELS 3 Zrotation Yrotation Xrotation
					End Site
					{
						OFFSET 0.000000 0.000000 0.000000 
					}
				}
			}
		}
	}
	JOINT Spine
	{
		OFFSET 0.028270 2.035590 -0.193380 
		CHANNELS 3 Zrotation Yrotation Xrotation
		JOINT Spine1
		{
			OFFSET 0.056720 2.048850 -0.042750 
			CHANNELS 3 Zrotation Yrotation Xrotation
			JOINT Neck1
			{
				OFFSET -0.054170 1.746240 0.172020 
				CHANNELS 3 Zrotation Yrotation Xrotation
				JOINT Head
				{
					OFFSET 0.104070 1.761360 -0.123970 
					CHANNELS 3 Zrotation Yrotation Xrotation
					End Site
					{
						OFFSET 0.000000 0.000000 0.000000 
					}
				}
			}
			JOINT LeftArm
			{
				OFFSET 3.362410 1.200890 -0.311210 
				CHANNELS 3 Zrotation Yrotation Xrotation
				JOINT LeftForeArm
				{
					OFFSET 4.983000 -0.000000 -0.000000 
					CHANNELS 3 Zrotation Yrotation Xrotation
					JOINT LeftHand
					{
						OFFSET 3.483560 -0.000000 -0.000000 
						CHANNELS 3 Zrotation Yrotation Xrotation
						JOINT LeftHandIndex1
						{
							OFFSET 0.715260 -0.000000 -0.000000 
							CHANNELS 3 Zrotation Yrotation Xrotation
							End Site
							{
								OFFSET 0.000000 0.000000 0.000000 
							}
						}
					}
				}
			}
			JOINT RightArm
			{
				OFFSET -3.136600 1.374050 -0.404650 
				CHANNELS 3 Zrotation Yrotation Xrotation
				JOINT RightForeArm
				{
					OFFSET -5.241900 -0.000000 -0.000000 
					CHANNELS 3 Zrotation Yrotation Xrotation
					JOINT RightHand
					{
						OFFSET -3.444170 -0.000000 -0.000000 
						CHANNELS 3 Zrotation Yrotation Xrotation
						JOINT RightHandIndex1
						{
							OFFSET -0.622530 -0.000000 -0.000000 
							CHANNELS 3 Zrotation Yrotation Xrotation
							End Site
							{
								OFFSET 0.000000 0.000000 0.000000 
							}
						}
					}
				}
			}
		}
	}
}
MOTION
Frames: 13
Frame Time: 0.041667
-5.746552 17.649129 -0.752673 -23.083873 -79.725860 33.670893 -18.313908 6.588305 -17.753238 0.462180 6.393686 16.596097 0.716410 -5.005453 -1.737245 0.000900 -0.195500 -0.537200 23.478505 9.432383 -8.089129 -0.279109 -7.640982 20.354679 0.998103 -12.922905 -23.623710 -0.309600 -3.577300 9.890500 1.065743 -2.225065 -2.472849 -0.296185 -0.885239 -9.491483 3.128980 -10.717944 1.422606 0.306400 -5.120500 -4.035900 -66.517907 15.964763 39.425258 21.099805 -35.798686 -9.264603 0.873621 -1.392411 -16.844151 -7.125000 0.000000 0.000000 64.005070 -16.692826 41.277788 -18.431162 32.681808 -6.708580 0.529853 0.528153 2.760875 7.125000 0.000000 0.000000 
-5.746867 17.649443 -0.752673 -23.047298 -79.720348 33.638162 -18.308631 6.505183 -17.726016 0.463094 6.396117 16.598671 0.710392 -4.926842 -1.772575 0.001000 -0.206400 -0.567200 23.474431 9.423884 -8.091617 -0.279161 -7.640447 20.353917 0.996987 -12.916559 -23.621358 -0.310300 -3.581300 9.901700 1.064245 -2.228009 -2.472127 -0.299974 -0.886640 -9.487902 3.123958 -10.719386 1.436706 0.302100 -5.121500 -4.026000 -66.527223 15.964537 39.422219 21.114060 -35.810829 -9.272819 0.873642 -1.393361 -16.842665 -7.125000 0.000000 0.000000 64.011878 -16.699174 41.268329 -18.434389 32.685906 -6.710702 0.529658 0.528102 2.759454 7.125000 0.000000 0.000000 
-5.747077 17.649758 -0.752568 -23.022651 -79.714276 33.619197 -18.301545 6.420710 -17.703486 0.464561 6.400559 16.606851 0.704556 -4.849806 -1.811937 0.001000 -0.208100 -0.571600 23.470944 9.413594 -8.096268 -0.278728 -7.639003 20.349898 0.996165 -12.909281 -23.613964 -0.311400 -3.587600 9.919300 1.062927 -2.230123 -2.471330 -0.304551 -0.887822 -9.483698 3.120275 -10.723080 1.449187 0.299500 -5.123400 -4.018400 -66.538158 15.963452 39.416769 21.127128 -35.822111 -9.280624 0.874296 -1.394240 -16.830868 -7.125000 0.000000 0.000000 64.018387 -16.705639 41.256006 -18.436640 32.689371 -6.712612 0.529624 0.528266 2.755945 7.125000 0.000000 0.000000 
-5.747496 17.649967 -0.752359 -23.035653 -79.701887 33.639244 -18.284881 6.332948 -17.686061 0.467032 6.407957 16.623487 0.698989 -4.775835 -1.856698 0.001000 -0.201900 -0.554600 23.475534 9.394880 -8.102217 -0.277652 -7.635797 20.340678 0.996609 -12.902681 -23.598881 -0.312100 -3.591700 9.930700 1.062527 -2.232950 -2.470196 -0.309883 -0.889765 -9.476416 3.118377 -10.727175 1.459288 0.299100 -5.125400 -4.013200 -66.552723 15.960619 39.408613 21.136817 -35.830691 -9.286667 0.875443 -1.395214 -16.811208 -7.125000 0.000000 0.000000 64.021809 -16.709778 41.244969 -18.436935 32.691525 -6.713504 0.529643 0.528537 2.751155 7.125000 0.000000 0.000000 
-5.747706 17.650072 -0.752149 -23.087051 -79.688425 33.700764 -18.261493 6.246053 -17.677422 0.470319 6.417735 16.646736 0.693776 -4.704480 -1.906191 0.000900 -0.197300 -0.542200 23.486363 9.385227 -8.108581 -0.275679 -7.631537 20.326769 0.997409 -12.899280 -23.586450 -0.313700 -3.600500 9.955400 1.062610 -2.234658 -2.468977 -0.316256 -0.891356 -9.468610 3.117345 -10.731642 1.465585 0.299100 -5.127400 -4.011500 -66.568365 15.955977 39.397016 21.144191 -35.837273 -9.291634 0.876908 -1.395710 -16.782676 -7.125000 0.000000 0.000000 64.026349 -16.711209 41.230875 -18.435708 32.691968 -6.713703 0.529782 0.528767 2.747359 7.125000 0.000000 0.000000 
-5.747706 17.650177 -0.751834 -23.199054 -79.669482 33.825080 -18.224709 6.159581 -17.675395 0.474060 6.428411 16.673768 0.688653 -4.637001 -1.953789 0.000800 -0.187600 -0.515500 23.511280 9.373466 -8.118921 -0.273250 -7.627055 20.310035 1.003439 -12.912611 -23.563787 -0.313100 -3.597100 9.945800 1.063749 -2.236051 -2.467528 -0.323312 -0.893269 -9.459437 3.118139 -10.735479 1.467663 0.300400 -5.129100 -4.012800 -66.586206 15.949205 39.383033 21.149893 -35.842297 -9.295504 0.878578 -1.396309 -16.751046 -7.125000 0.000000 0.000000 64.031103 -16.708337 41.214583 -18.432722 32.690542 -6.713012 0.530021 0.528672 2.746950 7.125000 0.000000 0.000000 
-5.747496 17.650177 -0.751730 -23.342367 -79.651747 33.982885 -18.183162 6.077229 -17.678519 0.477941 6.439039 16.700815 0.683734 -4.570419 -2.005067 0.000800 -0.185000 -0.508400 23.541473 9.374573 -8.130234 -0.270336 -7.622986 20.292648 1.009545 -12.929571 -23.547576 -0.312600 -3.594600 9.938700 1.065318 -2.236156 -2.466474 -0.328925 -0.894485 -9.453116 3.119352 -10.738084 1.466778 0.301600 -5.130200 -4.016400 -66.604873 15.944643 39.370790 21.156903 -35.848431 -9.300032 0.879937 -1.396661 -16.729276 -7.125000 0.000000 0.000000 64.037087 -16.704178 41.196647 -18.428395 32.687266 -6.711441 0.530231 0.528281 2.751620 7.125000 0.000000 0.000000 
-5.747286 17.650072 -0.751520 -23.439086 -79.638571 34.091175 -18.151740 5.994968 -17.675592 0.481379 6.448716 16.724724 0.678755 -4.503484 -2.059304 0.000900 -0.191500 -0.526100 23.561597 9.372003 -8.138989 -0.268020 -7.618954 20.277331 1.015286 -12.944883 -23.531158 -0.311500 -3.587900 9.920200 1.066366 -2.237208 -2.465350 -0.332454 -0.895678 -9.448798 3.122155 -10.739386 1.463673 0.304000 -5.130500 -4.021700 -66.623593 15.942992 39.363440 21.165047 -35.855766 -9.304782 0.880746 -1.396374 -16.717030 -7.125000 0.000000 0.000000 64.044316 -16.700617 41.176692 -18.423913 32.683501 -6.709768 0.530658 0.527890 2.758393 7.125000 0.000000 0.000000 
-5.746972 17.649967 -0.751415 -23.502392 -79.629696 34.164318 -18.128180 5.915010 -17.665487 0.483708 6.455293 16.739838 0.673710 -4.437831 -2.103116 0.000800 -0.186300 -0.511900 23.574022 9.367170 -8.148258 -0.266532 -7.616445 20.267320 1.019335 -12.953790 -23.516080 -0.310300 -3.581200 9.901400 1.067434 -2.239780 -2.464257 -0.331288 -0.896939 -9.445181 3.124083 -10.739233 1.461298 0.305500 -5.130200 -4.025700 -66.645682 15.946655 39.359470 21.178501 -35.868090 -9.312097 0.880757 -1.395906 -16.718649 -7.125000 0.000000 0.000000 64.048798 -16.695392 41.161508 -18.419689 32.679461 -6.707982 0.531090 0.527623 2.764978 7.125000 0.000000 0.000000 
-5.746867 17.649863 -0.751205 -23.528072 -79.621782 34.197063 -18.111789 5.834593 -17.646401 0.484914 6.458568 16.745334 0.668444 -4.370967 -2.140343 0.000800 -0.179500 -0.493100 23.578932 9.360406 -8.156141 -0.265919 -7.615505 20.263241 1.019094 -12.949165 -23.509575 -0.310100 -3.580000 9.897900 1.068327 -2.244264 -2.463442 -0.328010 -0.898973 -9.444249 3.126295 -10.738782 1.460003 0.307900 -5.129700 -4.028900 -66.669414 15.956301 39.361864 21.195739 -35.884052 -9.321371 0.880447 -1.395284 -16.727528 -7.125000 0.000000 0.000000 64.050499 -16.691363 41.153484 -18.416482 32.676054 -6.706476 0.531573 0.527638 2.766185 7.125000 0.000000 0.000000 
-5.746342 17.649863 -0.751100 -23.482654 -79.624312 34.156451 -18.113100 5.757057 -17.619609 0.484886 6.458737 16.741347 0.662909 -4.301465 -2.171281 0.000700 -0.171600 -0.471600 23.567359 9.353690 -8.163876 -0.266307 -7.615881 20.264542 1.019415 -12.946686 -23.502302 -0.309300 -3.575700 9.885900 1.068222 -2.249260 -2.462826 -0.320312 -0.900289 -9.446346 3.128037 -10.738380 1.460840 0.309800 -5.129400 -4.029500 -66.693031 15.970223 39.370389 21.216154 -35.903007 -9.332050 0.879674 -1.394766 -16.735511 -7.125000 0.000000 0.000000 64.052070 -16.687607 41.150411 -18.416038 32.674663 -6.706068 0.531952 0.527869 2.761693 7.125000 0.000000 0.000000 
-5.745923 17.649758 -0.750996 -23.419006 -79.628991 34.096876 -18.118745 5.680726 -17.589025 0.484144 6.456565 16.730710 0.657066 -4.229985 -2.195548 0.000600 -0.161900 -0.445000 23.552073 9.353204 -8.170256 -0.267071 -7.617628 20.269847 1.017196 -12.938743 -23.505210 -0.309700 -3.577700 9.891500 1.067967 -2.255130 -2.462454 -0.311074 -0.901935 -9.449027 3.128290 -10.738110 1.464962 0.311000 -5.129100 -4.026800 -66.716968 15.987031 39.383657 21.237653 -35.923141 -9.343439 0.879281 -1.394949 -16.738100 -7.125000 0.000000 0.000000 64.052604 -16.684212 41.154240 -18.417000 32.674313 -6.706056 0.532245 0.528179 2.754706 7.125000 0.000000 0.000000 
-5.744770 17.649863 -0.751205 -23.352915 -79.642435 34.038633 -18.129844 5.610351 -17.565241 0.482988 6.453070 16.715977 0.650711 -4.153098 -2.220268 0.000700 -0.166700 -0.457900 23.533314 9.376425 -8.179922 -0.267764 -7.620824 20.277025 1.017550 -12.945904 -23.516726 -0.309600 -3.577000 9.889600 1.067164 -2.258321 -2.463144 -0.299513 -0.901812 -9.458263 3.127217 -10.737835 1.470660 0.310900 -5.128900 -4.022000 -66.738366 16.004254 39.401921 21.257420 -35.941402 -9.353724 0.879518 -1.395707 -16.732684 -7.125000 0.000000 0.000000 64.055774 -16.680979 41.160857 -18.420503 32.675162 -6.706776 0.532260 0.528353 2.747386 7.125000 0.000000 0.000000 
